<mxfile host="app.diagrams.net" modified="2024-07-03T20:14:49.179Z" agent="Mozilla/5.0 (Windows NT 10.0; Win64; x64) AppleWebKit/537.36 (KHTML, like Gecko) Chrome/126.0.0.0 Safari/537.36" etag="yq42USbkVRO0i8HX6RUD" version="24.6.3" type="device">
  <diagram name="Page-1" id="DKfa7SzvSBE7YI4Nnyn-">
    <mxGraphModel dx="1222" dy="634" grid="1" gridSize="10" guides="1" tooltips="1" connect="1" arrows="1" fold="1" page="1" pageScale="1" pageWidth="850" pageHeight="1100" math="0" shadow="0">
      <root>
        <mxCell id="0" />
        <mxCell id="1" parent="0" />
        <mxCell id="iv8MLbUQPN9nxLFxDPHG-14" value="" style="edgeStyle=orthogonalEdgeStyle;rounded=0;orthogonalLoop=1;jettySize=auto;html=1;strokeWidth=4;" edge="1" parent="1" source="iv8MLbUQPN9nxLFxDPHG-2" target="iv8MLbUQPN9nxLFxDPHG-3">
          <mxGeometry relative="1" as="geometry" />
        </mxCell>
        <mxCell id="iv8MLbUQPN9nxLFxDPHG-2" value="" style="shape=image;verticalLabelPosition=bottom;labelBackgroundColor=default;verticalAlign=top;aspect=fixed;imageAspect=0;image=data:image/png,iVBORw0KGgoAAAANSUhEUgAAAVwAAACRCAMAAAC4yfDAAAAA6lBMVEX////wUTNBMABALgAyGwA/LgA9LABdTy03IgCemIk7KQDwTCvwTzDr6eX+9fTzgnHDv7VyaFLvRR46JwBJOADy8e3Oy8PvRyQ0HwA3IwAwGAAvFwAsEgD49/bvQhve29RXSSEpCwDyblfGw776y8TzdmH2npHzfWr0inn71c/vPxMrEADyaVH6z8i8t6v1kICVjXv3rKF/dWDxWz/83tqtp5n2oJNIOA1nW0H5xb3Y1tGMhHJOPhluY0qzrZ/+7+35u7JSQhZZTTTvNABmWTkXAADxYUckAACXkIN5cF9iV0H4tapRRCiDemrNDpMvAAAQG0lEQVR4nO2dbVvaSBSGQ95MQmKBCCRAQFu1rVpELBUBqXXd1lr9/39nEwUhyTkzk0kiYPf5sHu1JSHcHJ55O3NGELLQ/uHBycHhvpfJzVal0aC8eyFe7Jb12hp9kOvzdtE0zWK7cL3qR+HXdNLSDEUUJcVwWxeDdcF72jYLzzLbp6t+GE5Vhw1VXEiRtzqrfqQnvasUFqp/XPXjcKl6YYthGa11oBti69N9t+oH4tFWlK0oqherd4YI282kO23E2Iqi01v1Y72rF6LaQGeYKABcybZW+1SxuN1IujUocP3Qna70qYC43URn6LkgXOP3Kh8KYbtxdH/Hm7MnX9hZ4TN9xNj6dA9W+FxJ5d2oIFzxeHXPRGC7WbHrge2Zr72VdcZQT9g4ujjc6oqeiBi3m+UM3hZiC3v4Nb0fuy/6Mcj4gahsN6lHVjbgBs3AL7my1Rc5eqZP4zGw3SBnGMO9BWOIX7LcBmrZwmUJ3A2K3a4MwiVAq14o+cGlNWdzupvhu5YhQXCb+LxYx5FyhCt8ekux24d8geQKpeVYzx4uPK2woXStX1Dg1vALQgPmHOC+KWfoNuNsSchC/Ys84L4pZ9Cb4YGE1BoTXl0N2UhmcD8v/+EtOUNJcxa9K9WRidON4TnKrOB+/OfL8h8Z6W6EMwiDLVvWXNfVZPdBJ88qPOYRuR/rZn1/+S8+vaHY9TtYpUFv3NNL1KXJ8OR6NnCDocObpsuoqZM93OdhmXkUcgZGupvhDIyaqJnDnQ95zQpP7L4huoNw4GYBdzGd8Jc7gyUpWcNdnqox239z7A6jE5Sp4Yanwcyjv5duWRMzhnsQGYxFnaFdOaq0jyrFN+8MXtmJsk0LN8o2aNVCfYazy+/b29/3T9t1E8L6ZuiOJkCKg5sKbpytr7AzzHVWJNJ9n+YxVq5Ofw9abbPTJJWBbH1Sl9CLv56TvGGDfdeaXjXh5SBRuirHNGTLQEXYRn13ru1V0fWszqgWaNSx2BMOaiTN7/xh0L+xHXgZM5AR1x4TXIxtrM8w13eT6Ax50O10e7eS48hzOY6z2x8w7WzQGjKm5o/Za6x/NQNZfUdFWCNaiLgU2Qad4Q9xnjdr3612+9Kx4xqKGFoIU20f2w4qeQbeO8b5qFuzt7BaCckywsXj9il2Yd89J4VutrFb60uyjSTMiKKC6tcMbie+BPFqcMlsfVBn0FVnlEynzOjWtmQbXLilap4GVoJX1V8BrkdjW6h8h6772qZ8Jdk4Q2d4nNQJY3CjkzCvB5fK1jzfBi88olyXSewOXLz5ZoaLJNvkD5fKtmCewFcWiKabDd2yzGcIz5rDvSXEfo5w6Z7gw0V+31S4qZ2huhWbP0mkOdzo9OGycoTLwLZg/oRtgeK56WO3CmwcS6QZXI9guTnCZWFbKBTBBu07zXNT0x3CW0TYNYPbWQVc7z0T20IF7Odes8BN4wxjEhMmzeDW9jTcdBdwj6WZkFdKceG7W1n89klFeBKRMdOJl26tkaYtC7QYROg3TRfx3QXcl5GGxPyLaaBwGePWV/trGrp8zuA9INEmGW4wv+CPhUH4iu1qjtxoHu85OzuLeYdOT2qBnboXuEJ1Lk+H5nN7XjUu7OlZ47YQNGnwLfKM3QE8qrIddah3S6VS9+5WdeL8ldt+b9At1TrxXae1PtT3WMBdCBrRJVmJYPaEZz5IhQXG3HOko0x8PrD7pMrlD4to9Lq3MVtWCfm2gg7QzQMuuycQ6ebmDGCSvT2JZtNO5eh34NzhN7WAJjIHuAnZBr9tsD+WG11oY5M9jM/djmJ05RF6Uwtw6czhbidm63cZjr6B92Kkm9AZLGDYqz5Ar6xFo5GQiG8B3ays4Sbz2xe6L3uitkNrE6ytWqJdoF3gB4z02HtRIz1GM/FfAy5H3Ibh/hPOjs6hzwBsDnGRLPBqtEtm3GJ3zR8ujydE4LaPeLKjT+ApClDAFnMZK+nxGPkiJBnr2ucOd5vLE8JwK5FsETa6RXbftcQYBeMee3EMBcohd7iccRuGWzDrPLHL7Lud+Kdz0aSManT50bhCXpkzXNa5GhrcgtnOk24tvqLodNFXR1EoO8iwNF+4vH4bh8tHt3jCRhf4dA28+7oTRYaZbr5wU7CNwo07Q73SblfqlBzI90ytGtATI4wNdqOtXwPpjOUJN4UnAHCjOZCnh5efv37587FOzIEsMtGdJoL7IzYERiwkR7hpPAGCG92VMv/Xb0ViHhlLjwyIXIItxPrEWK2w/OCmi1sIbtQZ5vr6k0SXJXaBT4c3aNW91cM9SccWgovR3T4h06W2aqN4bwHvisVRvLot8I4diHARZxC2iYlk9JGwFZ94VW+wF5djtvDaDdoZU1cpMdxoqzbXF3IOJK26cXUSp4BVRujE12ReuSu2TWzCU8DFsqMPiF2yI3hRbqHYTiV8KjEeuK89iLhOawoo3EIRnAj/QvylFD8RwAaCFmQaYGUvPQ5CxaYhcoL7jty3TwO3/gd8R2I+Dpbb96IR8PGkBtBO6UAqB9r25QT3Z2pXQOEi6+4nxHcs0nwhPi3myxlH+hlWGVpqk7HZ8pzgnqdmi9sCvLj2ifhbqdDg6mC6jWvrS23VqA9uD5FE7KY5wSXHUR5wT4lw6zS4VThtQXKPd37rg+l0oJcNZFMTXhgwJ7jkj5oKLpx3TnZ5swBftKQ7LFNMMVzHF5JwE8BF82BygnuZupuLe+5n8B2Jwwgs5XdJ1QvObH0Zp5ATXI+eqcwLtw4uuZMTTCvXVLhCiS8Rz3jAB9d5jdCuGVKV+eDCiWTEbWrmOZ2tIPQIe3BwEaYm85tbOE1rDBjcQhsaopFcwUR6b1FdcSToHpNqCOc3K8ZWjIIDrmnG3+wbIXCRqTRAQNkDihrEveU5TpanpIvCXfqXufZJbCvgZASoMWFfaXK2uS7zpKOLwy3UI1MFXwj1GJCN2oimzQSbJ9VflNNK0sClFrNIRZcAt1A/We63nrUJbOFJNJxHGd2jEJHkTAht2fPN0sAlpKY+Kw1dEtxCsXI4a6S+X/8kvAm7374Iq5If/fA2pTSjkDfcNH0GIlw/eCsn7w4PTw/MCqmfAC9cEORdsexFkxx5zHA6VBq49iP9/vyxS4HrkysW60Vi9ZskbdmzvNvQOgNkEYqhyTs600kaaeCqaO7kkrjpUuFSldwTqpNQ3EoPjqzZhhqc0BmQVm3XaYpDnea1c6WBK8os78DrDOnhtpOytcJstTuv09Ufr7Z2VFeWbeli+Hs8HSU4LI4VLnh0Gqm6+UKcsZsWbrI+2BOLSWi6VnnZVubNlPB+zHCBlX3fdPtM78EXuynhJvcEyw5PhbeYQod4R0a4FhS5EiHnZ1lcdNPBRZbgSSTEcB/MZYsc4i1Z4YI9FPUiumLfAd2eh24quMn7YBFPEBU1/UmcrHCrF+DARTX0xTNYpd6NdgwOtznoLmo0bjPtVw+xTewJ3iQSPeTK+GxihSvcwwMXSZMv+ne6ftffsh3ZVUUFXq5LTLd98LLi4L1PeDHHuKwcyaMxyknvAMgCmIFwwZNmnvBKtqtprq3OviYktycZXbMSyk74kyh2k3uC0I02KdLN7/5YH3Q/BHUGq5wnG0JVLRTogE8gPxgWNleWhK5ZjOAhJ9REv5jEbIEzDSXD9ocMjiw7/jBCUS52h+WxPu2WRswlHb3aFbQSr+nx6AudJ0USmtyTgG582Mq+4snhCcKUssIjKZI6g9083rN3r+4GpQ46AvZG3cH4VtxrwFW03Nae+HSDpUsmrKujLtbMMtOtHwIXM2afmYnHZQJ6pCEaP4aryS3x/rELftQP//qDZpVQoSlYrtfkf5cuJpV5Cwk/8JqVbh3I7PrOlgnBxRYutkCTotqy/XAX/5F/YFrplJa3aCI5KXHZeEPLRhdePGfKMzHrcFYDBW7C1Z0lqe7eVnQkxwEXSacC5OCWz0QXXqz9zLBYz9GWpYTrS21dhaOXB67H6rpyCf8cDHTNApjv6dG7Y+YRT9z6t05ZUMzWQgvsPHCFUYPNmlzSJDqdLlbLkVj7+elCLk8IhJ2LzqzQuJQLrlBqMdBVHYO44EyliyV2kasT8/XBZrpLV8NRDJ9/yAdXqFHri9nNhwFlxoNGlzNyeT0hELFAIJuWdvRwwhWs8h7eJVTshvPIUDCdQpfPc/k9IVAvNV31x8vNeOH6wTt0NCBVVbUdR+wTWrJlUejCSaLkEbBZTMNWEIap6S52UHw4Bk4hiKsF/cI7+r3YdFzbUFV/VOgPC12naT/0p6zLdr4OiaCgARqln2siWbvM8vqtlI3aYrqrNowfnwFoiG2wGk3vHstbuz8udreuHu+m7LMZM5FjN/EILTVbXyXGbBBUGtvxI6+gU9KQANrxSNpQktYTngWVv0oifNj/6iLGbvwcjmtizlIWbKdpS7yy5Mi8lkixG+uy7pPYpuiDLRSZLpcUJSlrvJ7TCnRIonsUOojjjNANy8YTSuFT5+2Hh4loaHIjmCu3/babIfdRmXAuWOQiEt1C5f3+7Fm3L09IcZsJ2044bt2yIFSt4ECp0lQfP/6+v5mITqsVoA7O60HgikwJZK8lIl2zcv7p7PLy7N05OY8xC7aRss/KRRST51WrVidAfXclHTswXyP9YnyWItL1g7JeqdTJeYyZtGXRARolTcsaQOca+l6yXnApdKnKxhOi6USE2f65+hDddYObjm4WY4dA4zCqFn2s6QGlRdbMcwOloGtWsmErhGsoSD/oVwi9eOgqhL2UqxI33Yw8IVbJ0f7NcA1QWgStl7lKcdLNqC0TYuNeppHWXTxybaSa8WrFRTebPtiTIj9xpt0IwCwPaelwheKga1ILq7ArmgaHn4Dzoi6QC752nYWZEtPNzG8DReES6ufP1AH2WdKvWpUS0jWphcKSKNbyu1fkTlVJBKZ+G+vpCoES0c3SEwQoUcvWCBvNarfQ5CSYGrouSkA3U08Q4J1KWqOs16wI4ao1mj6KTXCJtrm+gSskoGtS61glVPUXRMvQmvbk5qrfH4974/G4Xy7fT4ymgxy2bK9jJ3dJjHRNahmrxAIqOT7rKSvXtt3gP4ah4nO6irSmXYUXfWOha5qZsxVqHMdBhpV+z1ruYojd7MZly2Laqk5ii597sD6i0mWtBZRQFufh6s9Sm5vAluoMGffBFkpzuqctrr8nPIu88pMXW39cANbAZJDSLK/dNC4qAt1sx2URdSas25VCaB13MyxhJtQZcozbJ+k2svCISnXEBMdwroUQunn0wcKydLGB1hqNB63bvBlsjiPMBdLNfFwGyeuWW8EGZookydBaai9BWucaCaCbw7gMllca76qO49qqAmXZBHVuZEe9HWwm2UAxuvl7wrKqo26vfB8k2TTloDCxpmnB/+Rmw57c93ulzvqtRCZRhG7ebRkoL8hnKnWng8FA1weDabc2sqLzZJupEN1X8du/SUsFGuvn/7PNWJfn7SBNzKwffaJWc/9fibV/+rNQODj7P2zD+g/FQr1AXDeDCAAAAABJRU5ErkJggg==;" vertex="1" parent="1">
          <mxGeometry x="20" y="475.26" width="120" height="50" as="geometry" />
        </mxCell>
        <mxCell id="iv8MLbUQPN9nxLFxDPHG-19" style="edgeStyle=orthogonalEdgeStyle;rounded=0;orthogonalLoop=1;jettySize=auto;html=1;strokeWidth=4;" edge="1" parent="1" source="iv8MLbUQPN9nxLFxDPHG-3" target="iv8MLbUQPN9nxLFxDPHG-5">
          <mxGeometry relative="1" as="geometry" />
        </mxCell>
        <mxCell id="iv8MLbUQPN9nxLFxDPHG-3" value="" style="shape=image;verticalLabelPosition=bottom;labelBackgroundColor=default;verticalAlign=top;aspect=fixed;imageAspect=0;image=https://www.webfx.com/wp-content/uploads/2022/08/github-logo.png;" vertex="1" parent="1">
          <mxGeometry x="22.5" y="317.66" width="115" height="72.34" as="geometry" />
        </mxCell>
        <mxCell id="iv8MLbUQPN9nxLFxDPHG-20" value="" style="edgeStyle=orthogonalEdgeStyle;rounded=0;orthogonalLoop=1;jettySize=auto;html=1;strokeWidth=4;dashed=1;" edge="1" parent="1" source="iv8MLbUQPN9nxLFxDPHG-5" target="iv8MLbUQPN9nxLFxDPHG-6">
          <mxGeometry relative="1" as="geometry" />
        </mxCell>
        <mxCell id="iv8MLbUQPN9nxLFxDPHG-22" style="edgeStyle=orthogonalEdgeStyle;rounded=0;orthogonalLoop=1;jettySize=auto;html=1;entryX=0;entryY=0.5;entryDx=0;entryDy=0;strokeWidth=4;" edge="1" parent="1" source="iv8MLbUQPN9nxLFxDPHG-5" target="iv8MLbUQPN9nxLFxDPHG-8">
          <mxGeometry relative="1" as="geometry" />
        </mxCell>
        <mxCell id="iv8MLbUQPN9nxLFxDPHG-5" value="" style="shape=image;verticalLabelPosition=bottom;labelBackgroundColor=default;verticalAlign=top;aspect=fixed;imageAspect=0;image=data:image/png,iVBORw0KGgoAAAANSUhEUgAAAOEAAADhCAMAAAAJbSJIAAABm1BMVEX///8AAADw1bfTODMzUGD8/Pxta25dXV2+vr7w1ba4uLjv1ri7u7t4eHgxUV/w1rXX19fIyMhwcHBQUFD29vZYWFjg4ODf29rr6+vn5+evr680T2ITExMpKSnWNzKAsMSkpKSRkZEjHyD35c0AAAtIc4wLAAA3Nzebm5uJiYkYGBg/Y3Z+fn49PT0jHiIfGRmAdmzVOS4wMDBHR0f879v638KbjYHBsaAgGR8hFRQcHh3JQjxdJybzPTnVPzxvZ1x2Li0UGiFoJijGP0EhJy5GXGuLhn6spJzo3szUyrtRTEXe1seblI4+OTUVDQgzLSfu6M2soI3W0sHDuKMnIBpkXlbYx7CQgnK4r6R9b2LKuqSckH335sIxGh+ZPkIRHxrwSkaiOjllNTM3ExgfEhwMGBWwOzLvPj7bz66gPDseAQtIGhe0PDmCKi7w1sUAEBJ2emhbTEAoGyIsOkNKGR1Jc5EcLCxcHyYzBxMPGCcsMD2nREFqMiwADgB8kqBRZG2HrMiOqMCUvc1me4A5HRY7Sk4TARo6Q1S9S0+cwmAzAAAaTUlEQVR4nO1di1/aWL7nJwZEKg9BXkYKCY2QChEQDdGiKH3ZSq9bS6cdO+pWx3Gr7d1hZu7d7r2dnY7d7p99f+fkQYJodbZT41y+H2slCcn55vf+nUNwOProo48++uijjz766KOPPvroo48++uijjz76+NIIR4LBYCAevuxxfH4wDiaaGMkLoEEM5YbiuJm57IF9NkTTkyCwEiexrMCyrCRJLEAo9UeQJYNiCifK0JQ4rpCB/OKdh7N3RssCZOSCLEA6/AeQYzjNAltAwMTdezMIHv/du393FQSRA+Wa40ozxMGn0PaEvMwJ0lczvBkz9+6uQUGGqastxaFJgHIiHgW4Y+ZXIUCS91ehAGPhq0sxEgJwB2PxEVh9MKNR83q9Azr8Xn5OkprlK+pwGEcO3WUwFs0q8FDjh+Q8AyZ4/N7Xa002H76SxhjPA6Ti8axbaN6nBIn0LPyIFP0efk1ky1dPTxlHQBAmA/Ggy8U9uqfL7yQ8fr+ffyQJ7qvnbuIghCLxhNsV4pDgJt+tnxpQrn5/C91N+qrpKZMXQvFIyu1yAZUgsvN40LMMmB0NSpCS5B8DB8HLHvIFkQAuEhl2jY6yNApSVh5USfJjtkL89RqjxkNBmrhSDpVxTEIwkOYmJsVFg6DXixGQR7sb8FoY8jOPHyYmOUhdKT0NAJcnJUQTiAi9HtRQVMaZ+w8fvvb6PRaGlf9YA8hg1ipeHYaMIwscB82p4WgcnsygFyUMK/yDVcgAPPdQyal2iBpbeQhrj0jiCkOXPfDzAwlKkI7HotdSJWWmQmXlnbkPLAgb8LTSYUhQWW/x/Os7UGBdV0aIqKJSKRAL5txu1yTMEJ30DPB/gszqYy//+mRYJN6ncl8qiFfG17hYKR+P5jBSuFz5Ju+hznNmDaapmzkRFTF+eDFs3AcIXPbIz4kwcEI0Okr4uUYnN3iqlP7H8IT3E331nxAhuQUef2UaUpc99HNiCNhcbMqlovHXChGap3IHeMrNmngbr5B4C1yXPfRzIitAcNitMWSfUoYDlaezFcrQYoYev4lhBSYve+jnxCgL8VGNoAvmVEqeildNZvDl80rHBg2Hyvsrq3DZQz8n3Cwb0UXohpZHF5L6h9dfmdW3DSBtv6rE0/eJIcYue+yfBga0+IRYCOoMxwRdXpqH8Xh5/qtnFZLWeDyVpxj+iZup8A+fVSpPr4Yzje7KSmFIZ1he2+zyLZia3oPXWGSQKPF0Go3Tj/kc/wAd0ddXor4IgCIXpGHdDPOLmwP+boYz0894Ggf96+AlDElPam16cx1GL3v4nwJDCCovZBiisZAwnO5iOFChQpytUIYtuEO1uLLJ34XWegYp2rzUjwiSuPTNFiRKhQKXJ1p6QoYV9C4YHOcwU/V7N59Ay+/3Pp+9s7j2ZvE51sG5y6ZwNmKSuLe0vbNVACkDGZkNucYe8dYsrfJsdu758+nMk026vQWTm37/NGQysPbdHMgKZG0txXy1vrS9vYCF0NrDrx5uSKzbRQzNwhBIBcXCXaqdns1FUmt4Fx89Wee9c/DnDdRwG1cYo0L91fatnS0Zy14yOZGXuRF2zpqIeh+vCgAb67wWQu41Yb3ir5Da3/MYdg7e1CFy2TxORQKUl/O3the2CMG7d+/NPAB2tPS0S4h+0vTmvSpvj8f7GKBFo6XHMwc7ziNJzNtThowjBop0eOvW9kvxycxMFXVxbmZVnKw/2TxRTNCE26sT/hqqPM1sMHZ8W5xf3hJyNtXT0O7eN/u39ud3UYTrX62itbXWQYAnlZMMzVrr33ySWaOtKv965tui8/AlZ9PUBnUUjXB/f16GBxjy4O538vR3i0/XK6dyU397/fwarPIk8s9mvk0miwd1yYZ6yjBhtrCxgjqaRIb3+Mp3wFfWH23yFdS/Xq3uAbW0V9uo9zh2jfd7Kot/mU8mk7UF0li0H9KZvSPU0aKz9gLu8wP3m5sDm2W153QKwwEv+hy63/8cMAPwV8ov551OZ/Kwygm269gw6GZe1G7tJ53O2qvMQ97Pb/D+gZ5TMR13QyZriIvBkCGAd8DLwwIhWKwdiWA/Z5Nj93b2byWRYXLpTXnGU3nGn+lgiAh53kM11VN5DKHNAW8LlpChs5hceaFk7FUpYqQQlGN0M3SAOyzcHxh47f0EQ8/T+14PiRuVe7PoftHRzMFBkQjR6Tza+kv6sklZQHrcW0SEhCGqaT3/SRXF9G11HSOll29NAzx5gCEFC+DDYo2eYv6FrNhKSxnHhFJVrZDI4KCeecpjiYvl/MlJX+0l1vfTwlzr+foqwOpjzML5Fr/2Yp4yTDqTRwpcu2xWFgRBOdq+VaQEncXaD1swTdZazJHqz9MlTT9WS37SNX1MV39tTD/HjIaf22i1YEGVIHGnrDh22aQsGN3dw1ioMkzW0N0XhEdP1xcB7lc8VoZkxtf7vEXi5ObzuTn6V4WfW4VZfh2OnEmNYm1BsVVXKqzsHm9jKNS01Fk8PBbrGYGkb5UB01wanULECvg1rN5Zb7Vek7+9rbk7jyCzurm5+ubQWdSFeCAKqcumZUIQ6kfoSDUBYMgozi+xexvy6sxrnpQPHRskPScsLv40QTW02WRhbhbYQmbtHtbCx7WkcZfmJVupaY6tz6uhwkBt5Zvj+iqZHB0g/UIPaVkM0BVC3tbaPX9lfQ0ybF2uw92HWIU85b2V/8wsmd7uXFDslNdMii9q+0kzwWQxWVuuA2VIlid4XqszMuhe/a9Xpyv4f2t9evXRRnN9fXG9tYmqDHuH5lOgN7VPazEM4vK+lWENveJRHRNUnvbUBlrTFeJDiSW+9m9uzJJpNj9Z2UZcLknOK9Psq5rpDjkPWbBP0A/C3kGXkhJrPJRksliPEPTzjx57VYMkaWgLVufo4r0BdKQVkrqhFco7SdObiytV1m2b3DQlYKxIOrspYm7ziK5SQIbeObjn0cIhmYYBEFYXn87Ofv317NPXeAT/1/pCzXyK5PyrAmsbhiOsXNsvdjN0Onf2iJqq+WlltdxJxT1IMZNhMxniUGcxoODrjcNkzfzm2lLBPhExJL7c7lZSJ8ltFvZGZzCi08ml72CaN+KGv9L6enHt0drq9GyLrGNoQX3B6bT6KnQ1tmlmlJQfejFESxTJii9ViFgbzW7qC75IzVTZRNAS2cOvivVX810Md0QYvmxmGsKssrx/wgypEF+yd4gQdc382mi7kV4bKZ1IqPRvTmeUja3leTM/ZChlUpdNTQOW90u9RFh0Hmx8T7pSWjqKFO9smpo22tyoh58GmRMVZWE+6TRZ87zM2iVcRJDhrW56WKkfLkmFDYksiVJl5cHc2s1XDIo0dvgrzx8JXP3n2zInvZxPJi0Mpy6bmgZkeNQtw2Jy5aiqcLJUgLuEItVGIsXMesWrrsDw0KDfWgRRat+4ceM2u6EcH2IuZDD8nrXLbGIAlG/2u9xEbeflniI1fLfZAtyZmSFVIvnh/7QGa3eJZZK1plg1PQGxUJhoD1KKXL36905QnK/akWFSdRK1w4Wmstu4TcZd54RHdx+QJfp+fn3xyfQkllXP1p+3WnOzT1gQlUJBUQq7VIoy95N0QJ2wzRgSLU2aZJisLe0qkkz4IQZFroB10uqzO+vPgN3bK3BVpU5CfQYEAUrfc1vSq1eSOH7jxo+35Sq3d4AEk5odjlw2NQ1xqC/pXhCZJnde1JXqhxs62gVhKJhzjZVAFpcOll/U6wVOdFWhWZ6ee7Aovlmq7W8fiW0fHnqzsaFUV5K6p2naxdOEOwzx18qyqFQnbt74UeV3c3ywLUo0OQnC0fat7drO8q6irGI6t1lpbbz5YWV7f//WvNgYHCfv+UnaOiiqtvitLNglWoSl+rLRX9k5VrjmoEYP+Y0P+nyDDXAPhZm0cLh/C7E9v/RGgbXF6elm9ah2iwSa2nF9fNw3eOPHm7JypHUUv63bp4+Rr/9QK1I3gx6Ukxs3NXq+QQ2+dh2E0TKLZTLF9vx/sfKb/34pLmzfUouS5boPGaJL3d06LDppL+NAts+aYTf7Yr5I9PSAVZRquyM+Az5fu5GRdvVQUNzfnv/z0vbKsny0Q3ozzuQSZegbH5erK0Wq8ckj0T6Zd45lDwnD2qtCYXf8JD/y9/jgx4asM0w6d5b/dnSruLN3UNumEUZn+FGhZSKZ4FlWwDaNmoSwt1NEzar9sKXQGHETCQ36zCIkL9v1mhov8Wfl4Pi4ljx6c6hGBo3h4OBbjBZUhMXasVK6bGIGAiQgkmEtF6rEBscJIytDHxHk7gpJDFQ57h9Uj5aa8t9J9MNUbanho28oVA+1tH3FPgEfAQp1NWR+uk1F2APoK+s7RvqarP0PBn13SXi5fLBzuPKv4zaqqM83Lv5Q0/W4DqnL5qWDcYyJxD/gfWcVWY2BPSm2l7aLasO4uLIM6VQgHp+C/90jrWHpA3oZn+/j3pFuqks2KvFpK+qARsMFpUpyk1MYfiD3gfrSw1dsPhaNxmORQC7z7vr1nwXUUmTYZg/1vPulwtmlD+WghrhM/cNOXWmcwpDY5psd1YkcvHzzFtKReGwkHkv97f31f7x/J/zkGx8c39KUFO9BXbbVsvY1eWOeqNfKsbKLvsbqZHDoPtXx/LRQK5LCAz5c/0WAQHgIhh2pxvvr16+/n2yjCD+IS1p6W1ySbdTyRqT/qeyoQayw67Maok8NFXRLu/r3w6PjOvyKpH6FsZgj7nBk24ThuzoeON7e29HUGNM4sNUSxQjUF6g33RELP1kYksjRbg+qDAfrrLynCO+u/wOl1oYhEtFzH5Dh+zq9C/XjmlZn7mxlpmzTD3ao3lQ8JN4U47RsMUSioY32TVWIvg+NxgQSpHgHoXB42DH1M/79a2OQJDSkRnFqLgs9qY0Yko/JkNHRCfjvb//YxbDQ1i0TJVofe68yRCEGUxAc/RX/BmqubVZV0qTzUJLLl02pGyWlSibHkoei9NEc80kcL3w0Nvjawi9ER1UhjsaGHe5fr7//0KbWqryYpyld0bm8ZbOFCg6ybq++TIoe1K+GJatBcTYGtQ1Io978VZPh9fdvSUxfe3f93T+Jv8VKeVlNzYuHrLJmKz9DwJRkiaTRyR1FvGmR4fhg47bme1BOdaVZf/deF2I6xsAv79989NHDpB01M68tyPYTIeO4Blj4EBOSRawvLAzf3ja8q2/wrSQJEyrH96wYj8H7nxvEWMfHpe9rpE9Xm/9GkkN2XM4e2t07wBHOH0s+4kypZamk2rfNavuhIctVCf3LPzAmpoba70CttdpbR8naysHCC1bhpLG4DRlGBAXzTiwalDYNFzrDwfH27R/Nhjn+oSFtNNmxd+9/yazlRhsf1cRH2Tg8XKrW6xJm4oLI2nE5e1qgenq0ZXY1RJRWGRLqvrYsi0Lj13yVLf1ECQ625Rd/ZuuyBFzCEc4Ba6e1JgbyonhUc+6IsqkL5WuPjzcsMvRRQh/aBU5iOfz1oY1429j6vqCg+FxDVDtTAFF7RXyKCBTEneSh1LxJGREHOT5eb3wo6NGCkmk3GkqjrigcolCQOFnmOIkrKAUFQsNaZ4Zx5AVbZW06hqHw4nC+uoEyM3xnm5MKjdtIq14QWVYwntcG9NlmhKWkcE0AkZugxURsKEWm71PAhu3HkDxTSDn+1zGZhBgfpEX7YBtltSFVdwmzZnk0l01cCwYDgWBwKJGdCnEF+W27Lcmj0UgIyLPbAiFI0HPFwT7dUgtcf1F+eIRZmpaZ3v6b/PZtoy6VR7NDkRMiYeIJIL25Ail2gzAadmQhpx9VArvMy1jAOEICWlVbYziuzj/dlvXdVpLhQBAwTb/RlvO4j5uMhYOMIxZTDxoRuC88+HMiXMaA3dA7ioODN29iDnfKwphwIEBl+KHKIqsR9J6OhMKWQjnSgkoQb2pHMEyIlUwMae8bIj39YjgQhds3b2LpD3FCKegwHRYEzSJtCHe10GFIox+OvTfDiNDGmrEtEXIBGCYHaZocjoiQ/aLDvgCCgtxhSFlmEqcwjEttElEKkCKLVtCZpsocNzmKf8TiZbLRngiCdNOkpaQu6h29keFEmxxUYHMoPKyltB1M2BFFhraroHQEoHnTIsPBhrvngchwrU2LRmmMMJyKRCORSDweQ0TjnH0/SxqFahfDduk0GZbfjmN5X5dK4WhEcMWjKgL4bwhsGi0cJD09wRB6JmDIMPSW9DkanBCJxqR8JBAcGk6lhoPRaCwk2Pdz63Go3rYy/NBb4dCXurG+JwwhGpxqNtV81Z0ejsSmBIjbLy/VEAZO+miUScTb+HrnmMhwpEE64o0Ch8xKIXdIKA3FI4Gh7KRg31hB8i+Jk5Q2daNq8ubL9BougwxzdcpQlvLD1JGWjcrD1o9RTICAdZHSNvoWvnrPeSQmEM2yWC/WC8bHYplgIjc1NZUK2mYKvxcYRyQngipHjWGj55Q8MkyAyGKuzrptzagXmGuTyJGrv/XR+e12z2UVyHAY8lMpQbBtBno6GOSYJxzFxtv2RwwXPScDAxj1IpEYa6+pwvOBPKbcMRQC0qiQCvWC0NMzRqNBIKHPNkvWLwjkGMhNkE+oNaVqT1dDGGL+krPR538uBIYIkokMp6dyoWqz1xGRaAAwf0lA77z1KgHL2XiPzXGVYQBEG8e+8yHcu2CPYZE/FI1GOJs2LC6CMaHXEi7C8FqUlIJX1NWYkIKJHlsxbYMEMhy7qq7GhEjPZ5Ni+SSk4rFo2Tbrnf8N5HvWCoHYhHuqDJJ9GxbnRw5CPbaiCbIsK4BdFuX/OwhAr9Q0EndJnCtl24bMBcA4hB6aGI5G0mDLqdDfghyoFRJDer607RuOYigcBtstDfqtCAALoWzQSG1i8Xg8OpQrS73CyNVEiRXJVzxByT06lZsaGXGXJcDa48o8HfnTwJqYTPtKEvGebLPJUi8KIzZcVvLbgDxiwdSIe3KCVb+VrFR2j6SHbfOB9M8L5g8jtx74A1Pr4w+Is/T1j2ynVx1hMn2WSKVzIy53qfeHflB8gal8eSpyNQUZABNOqwlT6u7hK+l34+5Sh+Epq7qC+v7fv6Yaco12wf0ZMpD45CcYhvT9v/+qrxScQK+m50VA9C7yCYaivv/3L6viiakJMz1XauizWEb+bIaGjH/3Rjh1ZUMGv0nmc4Up99kMs/oVv1AP1bje55vi+wRD3RBHv5AvHf6Ub784PsGQYdJkb+pLxcMvz5Ag9gXLxsth+CXxWxmeoWHnZXjyFMwnz32e63fhbIbMBc9GcW4ZnlwYzpz7Yp+BYSwxmheBnQhNXTOdjQnHI4HgNUyuqSUFcqHSxKTb+g3qFoZMwIQYPUOMLG9LpLLBU86ZDpW4kjvb3UKPJUbKExMTZXc2QK5x7g/z92TIOCL6MCn070cvm7bh+IKdhMEcaywMw+bzpBzm045ajtbOGSiZjta9Lf4fd5lPNAXnX97RW4Y5uikXD2tpMqveMSvDrPmaqdMYTnXe5A5Y+Iz0YGjJJI3ZLEYfZioQCaZ7jPeCDBlGHRSd89PrIZViuMMqOAIWdCqFbjuM0Vdlusobdc3IS7XMO9xhFcxZz2loojpKRVVchorz3BlKLxmO0Q3a6gJNBOorpnM8ppfpQCwyqr/uzHJ3MySpuDhk+JEYa2HIOLrOGY4Y907PXNV7pMuUcUz9mwy1G6ktcNWlltXcl2F7Y+odNYZjeAYzQ2QVmwDrlzzpZ+xUT3quDiE1E5iynJPR35HSGTpccP7FmycZ6tWPZsp6bs5qu/XyTpsQZeL6CQyVsvrS8AQ5lTlD0y/ZYai/o8w4GPUbbcznZPRrGsUIE4bzrww4yVC/nGZYAcvVOgwNX6aYCVkZEp2cgHyX30+cytD4yInuUK+pDHXTTdNX5Cd1/vr5BEPj/ml33ShoEz0ZGje4N8OYCBPdwflMhirGtA1agWVYBpvW7nss1ftDLOdhqF8fmHA4HIvFDBlmT2Goj6YHQ/X2dPuEczDUNwxbXxKUcsaVfyPDKTgF6Z4MHWcx1O5O15L1izM07rqGC7UiTzAcg1OQuyjDoN5V62rIXJwhoweY7sGchlgilx5iVDGfYGikIKe8+fwMOymBddX6xRla+7AUk2ctq1b9f0kNPb8jQxMsrdHfIMNOk9XA2OmGqDvHUm8ZGuM7pQw/P8NS2DhXyWw2F2VI17GGu5LEs1LvUcshw91vyH3iDBfxNEbksdjNhRmq/2IJo5dMcerz7DpWmzVfzlCkYctu412MrhQXYWhqVpqeKHRhLc2WtFQgPGSS5KlfNtQp2Gic0pNEVj/eyMLyVoZhbYgXYch0FMb0xfEXZpg2eWMmYUjoNF/TYUhb+K4TlzPCheVBTgHd6i/GsHO1zgUuLsNOfsGQR8Sr+05fiaQn8lkL3463MzzzZKfGppIN92J4dk5j1lPj60d/C0PzAxg0tTv9uZI5/QDGdLXOx1wZx4nyTGWtXf5CdujoKElHqy7MkJTIprWdia6DTyCmUSLQjc5qc0ZIVNQndcSn6MWo1zay4CxdNYM/+kxLmh7AdKZeVFfV0VO35vjT2muRcWhr/ExqpZYO+oZcRwxj6rEMo+WVoVPjIaP2QlTRaCptTRCYsKkfM1kuT4BO0EGeLKND7Up0fC/QJ3o4wmljQ0J/UIuGMVqAdfQ2pLrIE+8wHZKNGZeY0ISmxnM2dlZmSq7JZoezun51reBlHNYmEyIfd1haGNp4TNOd6mGmsamcHCYJEeQmrAcMdb8j1Z0TTTLkEHqOUCIYGFJvcejMz8IxjoC5aTZ68oEIWNeZe0Jl3cS65lSznVJVBdt9DyapppgvZt2PN6mrbkhb7wiQOhVTNiZgfmf+2tm1BdkZybpKLHChHHm2Ye/2eiAx5R4LuacSp04Mn+hQn2xid2/sHhjTteXkwOmKQKLeTDDrKk/mcUDnXwBwFddCXBxnCvuLjeL8sOOY+uijjz766KOPPvroo48++uijjz766KOPPvroo48+/l/h/wCNv/KJO/s69gAAAABJRU5ErkJggg==;" vertex="1" parent="1">
          <mxGeometry x="290" y="302.5" width="105" height="105" as="geometry" />
        </mxCell>
        <mxCell id="iv8MLbUQPN9nxLFxDPHG-6" value="" style="shape=image;verticalLabelPosition=bottom;labelBackgroundColor=default;verticalAlign=top;aspect=fixed;imageAspect=0;image=https://miro.medium.com/v2/resize:fit:1400/1*U-p7zL9wxENueOTiUaOLiQ.png;" vertex="1" parent="1">
          <mxGeometry x="262.5" y="490" width="160" height="40.53" as="geometry" />
        </mxCell>
        <mxCell id="iv8MLbUQPN9nxLFxDPHG-8" value="" style="shape=image;verticalLabelPosition=bottom;labelBackgroundColor=default;verticalAlign=top;aspect=fixed;imageAspect=0;image=data:image/png,iVBORw0KGgoAAAANSUhEUgAAAQsAAAC9CAMAAACTb6i8AAABelBMVEX///8AAADRpBr/3Hb/4Hj/43r/3nfVpxv/5Hr5+fn/33jCqFrYqRs4MBrSpBrU1NT513O2trbjxGlsXTKTcxK5n1UTEAljVi7MoBmdexPy8vIYGBjs7Ox0ZDaYdxMTDwKJiYnDw8PDmRhAQECjo6Pc3NxPT0+Xl5dqUw2AgIA1NTXOzs4TExPa2tpeXl6vr690dHTOnQC9vb12dnaviRZqamokJCS5kRfdv2aDcT0gHA/RtGFDQ0N4Xg9GNwk9MAiKbBGkjkyXgkZNQiMrJRSOe0JQPwpeSgwAAA4gICAtLS3///JYTClDOh9TU1PXrz+XhVUiJzMtIwbTyrP/7qf/6ZGAZBD78df/+sgNERh2a0u9p2Y3MyZKQi7/87deVkFITVejkmCyraCto4rHtoagk2qMgmXx1H/q0YtpZFcLFSZkWDn025PGt455dmwsMTnv2qHczaS5lzazpoPy5cHe18WQint0cWrpwlrRtWoAAB3asDnq0pj46MEagUNxAAAYpklEQVR4nO1d63/TRrpGli3ZjuI4Jg6OcRLb2DgXSDBJSOIQEodbShMooYRethR6O5TdbSmH7uku7f9+NO/MSCNpRteRCb9zng+08WWsefTOe5/RuXNnCI0PfQFnBw3l4dWUf6LeVOop/4QcLCqKspKmbNTXzF/opPgD0lBXAGuFtH6gCeNfSmt4mVhVCNK5c5N0+NS4lojL9GKVB/LVRuOmNfqy9MGlo64wWJQ8eIcZuyd57BSAZHj6Cr3gi12JQxcuszyvSBw5JVwzL/P2efuS5WmNCXtQZEgUaQOnhgfmVX42TOH+sevjKvrnzHsYDXSVX++wwvxAykVfY0Zc+hT9OyFj2DRxHV1lpaw4IEFpOFRF74uB+e9q8lHTRc+8yC/LuWMnGUmNa2HJMdzE0wvmv00Jl5sqVsyL/Cafu6vIJKNwwznaufy2+e+GpEtODUh1fpUr7ri4UBLFJw+cY619kT1AekjWNacE8LSGWa087SYjgct82TXU8tNsFcTjbKOLrvHrrJqfdXNxOfaY19xDfapmx9B/z7hRBTOypaneRRLbZ171DPScDJ92liQhwCGqaKqm3fGQEc+yNjzjNMzhK7BWJF+8ZKDcwpdlTVVzQ88c4q2Sm+5hrn2hqio4MGfcwUAm9W85lV6tE3Huo2eFILFQ1WySVTcioLv4TR5x4XEx4gnGFfcga89VykVT8sVLBvIPvwUueILh1Bj17tWJ1mqn12tS9Hqd1dby1a7tjHjF4plmcXG2na0Cuo1fwRpRsQ/gAAh14+r1TnNlyfOmE0sbzU6rW3C7FsrqUxg8hwKSs53yBFfrM8yFmrvgmWBnMYiDALx4TsYeN/+48qGn6wswgC+z+HrV8iDZxL04fKcRLm6jPz/0dH3h5KJYkc3FEzo0lrkznQoHF3xIL1jNbgXMbXB8dJ6NXO7Mnr897gllLHyXoyPnIIt4pouVkJL82uJCzVa4y+T4/N3h2E5FLWazuTxre4f5XC6bLZYrO2MHs0fu79pUqDmId2QmlqVj2cWFmi07Fejt7epO2WQAzViDta+xC6lC1IFWhM9oW9W79ve/t6kgXJzpLJ+HC1XNV4nMH29XK2iCRU11IGcnzcfzzrdMSswvVMa2kdX4gX3zI+Ci5eVCzapDZXx7rJw177PKQdFWKgc53gc0k5CyyaODQOCi9aHn6wceF6qWM2+v6zXHvKzkaIVLFmbU+VYOJfmUyQ89Xz9wuQiC5aDeyQd/2MHFmQ5UQV+8jMiFphGNcpe7RD5WLibicKHmDjAXW8X/50LDIe0gwvcwF2e6Nwf8zh+jckGswnb4JTJqLiY6vd7kRLRcM8QjPwXOyfSkHG4GNqs74ZcIWVYj4sJqgHnQjJCag5j9Z19zoGXz5Z3qsLpVZMQHhZ3TmtiiCrgYjb5wZp8Xwzr+wMW3flxktSpxJ6arOWvyqN4xG2GJEC6k+xf17sSkuRx6vc7khJVd+0Rx4mY4F69w0fzsN+JJafmxeXvQ85ZkaNpAGYuiZjAXUv3Oq50N96wvrfVajabiwdL1MAOitNXSUyEVGi6nHc9uz6Ig9G6emZsaYYmQzLK8Asmypzjnj0shQiGkZR7/l2BWmgrZqKEZmuTyWTQb26MoXwjvdKrUjkiKzeo9T7Y9GNcCE0moPnIo4EIrHpnvzpbxEtLyZnx63iJAK0ehgnAhJX9RX4xOBCBoocC4r/hcwPUP7dmjxEU0BpixYLHJyGuxbWA3NpqrreVuo9HoTrSury5ueIp2TtEIMfIPXC0ItfEhsxKQIY3iUzi4gKRH8kJ718rLX1y8zhvuqh8ZD3xvBnQo851w1JIx68jHmLbgIJzx0FCii6Uth5Zb8jy4VYraEKnhrv868dPeEKj+xJsgmvnA8UpIp8J0zrKVLdM9Y2VITn1kjcxoUXx/A7jwc3HAR+M6nij+croQyPO+HWA9TCIqwws4pmdDeqgh3kxIBSnK+e7vqPMpsCH2fQvo7UscB0MrD4/HnUKAlKc7w+lCtli1OwI9XAToriDcDLyzCJeCyBB/H331Nc+oatmsy2igUN0/lZUfI2WB6aMLs7OsVEGU30xEBZaKpSBbdD2IC7HOQA6G8oqvEV0MIS785EJTwXBOb4+V1RwqnNhv4cA2UWi2gtdH8AeD3Q8RnajXVfl7JR/CoQ5YI8Uy0o93qppJgns03LuWxAXHUUaoVdYRs4DxieCLZNvPbAg2UAOaWHdqZdTxdZDlFhKyQ/QjCdzOFlxlyAaOetPXR18ThQJgg66EYgPlv4U2Vcui2GVHMAZ2weNTga3Dw/BfaC0+4PJw0y+7w9igIDbQzeVXh1QSiG4J30WVxRvxuXioRP9+vdVZW7lEJeTG5ZXm5ERAfIYMyRXyjW1fNtDNHQr8TlCOVaEjlpsOu9i5wAs53hIrAMJ9FhIBlkBtl8VsID9aFI+gWOW8jy5BY8du4wMnaBQJwlUHF0g2hNmMgbBqCH29ZTGLYFJjmxGwIfF7ssMDlCfscRgcmx7S9sFQMCd0c0UlEaQPRKpEy5WryNrGjtixShtFHwsI4OtX5XJZLeZND8lRXc+zMH2EC+gDXuTRGlCZ9+zEqBmfbBOJi3uFIBZNeTP2Afi2f5r+kVccykcXGByjBh0+TG1xZ3vWBg3ttXL1Nl18cbs7sbYYTasXeJ7/4gm/FruX7QJdL5XqcPY2DlvjFopWRycW2GBd5uXCJXChot4lFTzwuIlfyGSNYOtJvbWIt4Yd/oMXqpbHGAynB+M7Y1xsT8/POl5wml5cHIl5iaDbU++e7naYjuV/chdJ1kb+ANVHsjygTUlVx1tOLwQSfBEcaAcg0kq3uanbczrsv+Ry/uFI9ljoaaG3tsTf1rQk6uJmApkKg27TtWlSUZYu363k+c1qeEJQERB4HmInDAFvsIoZpBZSXSINp0T8+vNL2F5l8n80pgmFA635Wb6TranzvoUTXD+MebWQnE6n560wye5qOLz849gjw1hA/49dzwPR/c2Oi4OR4rivXOQQ12sxLxjURRo+51U2//X655c77w09k9HX7RePD/jrAMWhwoYLpBvFXOCO+7ja71oq6qIwyaSIX387fKQjIgC4rwA1uAr6W6EGKGzbQ8G8oAMBdbLAEonrNyLvQnZYxrYl/OfblyYRpQwFXiS/5H0aXFHAIbz1KJvJbd7ScpUq7g+PfaiGkmB98bG8YjNx87MdlogMXSSP/yFkAnZs+pSJTKamOQKlbVnFklDNIByAGZG5f5FZHI+/GnvvJMJEqQRlDa67hSeFUhc+fTiocsx7u1geI430cZcI1PWkZXEKq3Ynz8XhI0tHsDB2wYoL+3NQ1veOj/MhzJAjdTGfxEHoJtG7biZ6CosajwlzkWzCu29EGS20wbua9wNK/3HlBleJYs/mqjQu6k4mFGWKz0XGuIXe/V5gKGB/97gvTLLGuYKTsBogi4uCmwlF2TP4XOgz6N1fP+dzwdnFywOvNwPHIs3Yc5CzRjhMmNgUCAZ2MfjaU6vc5g3lAa9egPdXxPcbpXAhKCruCgTDOEXvPuRrT43sGDmocLED8cxRmbfC8ijrGzdcPyfFjky6u0ApBiW3QcUoteHt30R57jLYxqNKvqg5kSWHRVS5UR0OUZPcV/T9JP7FMm3wOvz72/suMtZF2hM+eO0pMyN2clpuB3yQg6KDLdOxhPVznhUKNo+OvM6LCaaS0O/sPqTzPnpr6MaMk4v77kVSI8Bm9Te1bMNxp7MqxBXjO4wfUYTzkZTpMVYoNGYEMKgdUscLXcpjgdzEuA683Qn6zVvwq/TaPQcZNScVbWUaA8dnh/PTFB7vKY9d6u0yTfjn8AuzZefKUqbtMRA+uUIRw7bCdOJRYTX93Xmrk9VQMuZYLuYci4ToCS6O3Z5kEbdREDEoaiAUgx3nx7AVFSD6hMAGxMmCT9iBx4DVBW1GNG4ZYbnw9uBoObyt+UIlZ0oJFAa3VfeOTlUqF5DXil6Jra+xP8taz5IxZb/RZi1JqTY1R7EPb38/ViUY46SxtNwYCP6QaI8tThRCv18FKbp2fdJGdC6gmBrZkLiPZ2mzi4ERjVOnYOgWsCnZeMpP7FNky9vWT7isCv0EUypIXvxDuceIDkrDczqL02LolmiciFxPEqE9CWpzzm9hP/TIv48HR2XNhFTEUJ7U4b7CaAaXK2G0b3FfZz4BofuLz6kfxZ8j9SmUu5ogr4e/nL8tQyzOtdAoEby1LtWZF9rGpsXGnmvOuoE1woJDYGoM2qALvlN5/oV1u4tgPpDfPdjhOZvEv1DBb2d8i3j+Bc5shfe2qFDceWugGa/vkb/n3AKARWOafamtzNsYYIfgIvwxzcvOmD4FmI8hDlFMf9PLhjINY8FQNy6yiOUoXI6wSCyh2M3o5P7PnMAL816VoCPRmLE5iuRfoF2JIBS3KzmNhChDt4qV7F8QmxBukdCAdHzTzmPq+hzcllNvVGps7in3jFBcePwLjfgUw1xRtczrscusSvYviFUNkyS0zMepzi6Ikp7ZRxfa9kalSDSYl2tTtoOBAHb1y/8G/8LjRYFPcVShcVi2jPdyu3xw8C1gta1OuhCHC9zcGaxqaFP88aYnuW3UTjmRGBYNZpFkdCcyIFA9cDJcYoH3STmCc7x9ddrJGnIthjBKrKnzJxlYpqeO5onOzW63F/j2k/tp+h4uKPKcDFRqt4WCigbyvKquT+OyYYI+XyfQYKJ+doKuXS9v8ydmbJ7yUzc+wEW0x39xrGVuOPSajfzOwL1VVSuCWpF2UlAzUHuyPrfHehKUfCRACDBC13h5YM+ywaLh7jeAE7AlPrMCEn1+G7Qcm5i5eiEmiCv+Xeit+25RyY1JXSEmNtCAwmC14To/UR4V5irZF6qMMCCn+sk86LjrJxgtaklpBk8YY8Qi455QZYQRk3GJNoTgoVgwqNO9btCAS5Trj4VSDQzryvM4VOBIXXLLBJTPlnjvbGAm9too/NBPsVWVyAVVGYuCOpovFeBZSO9NhZ4Jr6tWJ/HHAnETjE2k+DkeZgKQ7HlHWHkXAetN+SeB4+3InlfJHqApa1XoGdMl2JcqGCSVEcGYYJADQFM4I2iNo4SWLVXhvI23ZCqMDK0dKU8ikZHFJiSNdkzOJhKyhfKk7Zy6XrvH1D1K3IaTiCjhLMjvEcgo4gOD0znuGeLxh+4XFOVexj3Zkm5zUartrtcS06HXwP88DE9GEXaoKldS6um/4VSfpBdvwX896CjldCuxx6G35yORgfctp3eQ7bLDQJGwlJOhccD4TI73RSzrYTidQalI72ESEHWQ2ipxK+aCtKQB+Z1awKfCk6E8CWFas3iBxG5eDAG82WqSoWI90GA8eoxUigy7QsmYDCSDHiCd6ibS69SWrISlQgd351SKv0HJ6AV4oDlyBnDKhw+CONykUiHst7IhS10QMnCZYO25X6CW3xkJFWSV4BTWdDvEDI2fJakLTEYbC/+Ld+KuYBKDjOBISuppKsp8GCpKj1Bqw10zS0AG9jOU1yINqmVJsXkUJ1LSDv9QUpHRd14HuyDRyCB12B53nWTLpONxNAde46a8QSgqMvrX6MOiBt84KOmkAe7FO4+noeV3yKHQo3lIFXW8w91qqaqTjnlKRPO7z52ioWXJkdAjemyC9SDrIH+TXPdPMlUnHZTmElfesVqDdh8oS6N5pF3LUp3KTBgyDJQbvCNoaY1PxiZ9FlznOTUoWo4eID+iRynjcwd//TKsd1H6A5lf2dkMlDCifR2/PoGFouUqR+SVET23jJxp/HY5rCWRbkYskFIBXihatjikf47o6RFwNjFyvCu4SnYSeMX62KEiPeNHyNi0Hjyz9u7f4+R/b47qwTuXqJ7ov8L9vLeCJolNqqimmAx6xt1dPsJn2eF4bB8JfP8N/uO+p7nACeMlCFIqXDD2xEKKMboDWBRIGaj/7gX8GaAKjB/Rh+RWCBi4u8tHRUaHCAK5jP7vj+EFfzcjFfeCQcmYoc/wurgM5zGMwuHEpsMOskrG74f2mhFy8a90uUCigbXG4rk3uNaY/hOZsDUd1Bhp13/HN4SUiWjrMttiVDIW0+bC5Hv9RHnRffaoT9LDafvfBRyQORyK0vsWJcMwMrXNmZmp/dNdE6en+1NTczMz65tt/X/M9+eBoPTI0PX1V6/6GSvvlbJZxf15LntQ+oMEJ7v398RP3jN9soX9uZnNWkY3UuKkpPf7mBVo70qrJIKBTYgn5d3/w/uwVh+c3FvYR5wgSjLpmBZceL2R4lFgeMaupgrdeF/9in9Epz/u3FuYWq+VTEak86GTXllub4QU4IDMmbDQjZ3PAs979sP8vd2ZTSQiMmNYg+S8Ep/9LQKuKTtiD9349y//CT/vi8J3bi3MtDOGLCWi21vZEmzI9QM+FJwxISWTiUN7osEP/j1XaHRbnd7GJS4p8/f21zO6jGJ8jRk1lYOfsN60TUipv/W9JRMPeqY1LwQtFtvI1U1O1i5xzkXe252pJeWDNGkstKE/Vu5RLgBcKbOdy/77f76gE7hGOwX9H7ThTSk0lnmPkd7bXUfrJa7+wAZ1oW3ouPOvKZsK7G/azav9LevAgh5jxj3byxzglyoK3cmmR6JunW7GFo95YAJRqYMOlZ3ggpYLqy2vZPxGhaLptOEr7kmxaIrHL3RX11wn0M3fn6nFUKfGAmXCvE7cOS23cobrplRvlt4/eY2v1/ugiTVFjCCl3mi5BeTWPhKPKKtFX7/fZrbv4DhNZsEIO1lUb/b/oBtEeFkCzoO8KMI89aS+3HPycbK7HomOmiOtROI0eclP3MZIMxR9Gn485Pv7Pg8RCBk6WmeZEswvIGUaQTgcZMAQ0tIZEJzeclPRFH1c/KyNCHXexqpT9QAdcUyLgYNWSU3xWFnUKBVkqj5rUPjUpojVm+Wm4yCVhfUYpgVlNQBSIngsBkRZlN6TZgNfoWt4DiUliBxFdzuszzKN6IikSfXd+L/NmRcMRJyskkHKRAEZtILA0YjTDNFYfciMcHLaDi8cxvrA/uYnySN48AstZfHsYRgqzrk2GFmIGTcWJlnlsTcVrmfWFopp8LkexPtxG9hEUmXxBnubYTLufHMSOyNbn2Sl436ItUKF4v7+poFzOwkjeKwdqLL4A1vXcE5ti8dFktp3fZXRHQO0VnzogG0KmAfku+J9jMkq7/C7NJPV//RGlBG7vOO0kqXqGx0mg3ZrRiwc+vrgHuUBbiM5UiTBb4M5PaFUkBUSWgcVHnq5SNyu32Ud212BcJRqyP46lAqO0+JvycSuBA1D3uPMVhQXjuOQSwiUWhuBwsHbArsXfn17gec+Z9kQuIRoz/eZ9JIhw+mpM2tlPqSVLWXuJLgXIOI010sVZ0Qr7VUaYNomWpPXW0EPcPLFBBMR318Pw4ZegzgtVtCK7ykt/PWfrcSj1ZPSWOlZuaxLnQR0FFbtnNjenB7c9EPitBhBK14h9CCG0iPscca4Zv+n3yXqy73KCEeIpUKKi9FtGawQq6+i/24x9mpb5lBgI9kzOwsdO/YJXirk7IioZWewIdaBPiX9XFyxMFH3zYM24w1qgTlmfG/GCGiKwS080eI0vBHAKgH0/7ye6LK5R9tSJM4tMMfPD/Yz/l0xUEe6GElNbThWiOlywpKJbw/91omMes6qvVR2fUM33AQZpdKKL90aoPQeP/Y3wcXynFCCgJNWQqJl/8DCpg8bOE6LsM0fSlr2YT5kiSTzGcX2RFKjRMN+eMc9HzWK47TQwgjLmznWpP8MfiZh209XWrpLBOYY9j0xGzhOa4YbErsSTHtVP4kVYcDP8Eg9i8F+UMGJaVT4cSwuLobzbGDlsRtfHoHjlfDp3QhXJ3hIPi6LllVgGUwJonod4rTrjUbgXWiBjDGmqf9qOTyRZwATlscxzTexpLgIWLrWWxabWFCc7E6I/l+g90azYUkKuvZqPOWxQeI0m5Am38mBeTuamvvPmrKXdeqwjcohjw3dc/zhJ7w4Ed5xfLH/6YoU1Tla1Js2GzUPGxCnHb4+ZOlYdLPRdCtOZEaWPkIu2KdaHO562NBrj5799ebNmz9/+PGrx/RzTg8KLMaJ84v9c6jDSuaZZSNDx4eNUh9gmHi7QBUHqwhgmc3oLi7gYx9sQongx4YtJHCYJsBWohB3uB8Ug7lIXHf6ULC6krlalMKgm1AscwkrbN1wHiXahx6lMK0kZxSrVxg2RDUV6xx7WjhA/z8/40brwUepOxk42BCKBnkGI86I+qbjRrW3Lx3YK2VfmCemXgfYVt/800fkd3JhsfHlviiGpWf+oY/7cpH+qRppw2Lj4pSADbL3F1lWny68ETx3egSwLOxgzmUg6OawPeu2F/zwoSciBRYbf5viYU5Cd8JHBF9FQPChr3FkKPiqgv9bXLAP1uJD9gOEzzb82Wie+19Jp8T1CB21xQAAAABJRU5ErkJggg==;" vertex="1" parent="1">
          <mxGeometry x="589.9999999999999" y="320" width="98.9" height="70" as="geometry" />
        </mxCell>
        <mxCell id="iv8MLbUQPN9nxLFxDPHG-9" value="" style="shape=image;verticalLabelPosition=bottom;labelBackgroundColor=default;verticalAlign=top;aspect=fixed;imageAspect=0;image=https://d1.awsstatic.com/acs/characters/Logos/Docker-Logo_Horizontel_279x131.b8a5c41e56b77706656d61080f6a0217a3ba356d.png;" vertex="1" parent="1">
          <mxGeometry x="510" y="208.81" width="151.59" height="71.19" as="geometry" />
        </mxCell>
        <mxCell id="iv8MLbUQPN9nxLFxDPHG-10" value="" style="rounded=1;whiteSpace=wrap;html=1;fillColor=none;" vertex="1" parent="1">
          <mxGeometry x="540" y="280" width="210" height="180" as="geometry" />
        </mxCell>
        <mxCell id="iv8MLbUQPN9nxLFxDPHG-12" value="" style="rounded=1;whiteSpace=wrap;html=1;fillColor=none;" vertex="1" parent="1">
          <mxGeometry x="220" y="200" width="610" height="350" as="geometry" />
        </mxCell>
        <mxCell id="iv8MLbUQPN9nxLFxDPHG-13" value="" style="shape=image;verticalLabelPosition=bottom;labelBackgroundColor=default;verticalAlign=top;aspect=fixed;imageAspect=0;image=data:image/png,iVBORw0KGgoAAAANSUhEUgAAASIAAACuCAMAAAClZfCTAAAA0lBMVEX///8lLz7/mQD/lwD/kwD/lQD/kgAAFywNHTAfKjrb3N4iLDwaJjcAFCoGGS0TITOsr7MADicXJDXw8fLIys3Bw8Y7Q1C5u79yd3/5+fqhpKlpbnbh4uQADCaXmqDo6er/+vNKUVxXXWf/nBsAACH/smFDS1eDh44AAByytLiOkpg4QE0tN0VfZW6doKX/w4L/9Ob/6dD/zpj/3Lf/5sptcnr/1qn/pzj/r0v/slb/8N55fYWGiZD/0J3/oyn/4L//qkD/vnj/yIv/27H/u2r/rFIgOyjKAAAU/UlEQVR4nO1d60LiSgwWKNDSG1cVBLmouCgKoiKIIl72/V/ptIXCJHMtoqwevj9nz5a2M2mSSb5kZvf2dtgQyoVMKXt9Pjk8Oro6Ojy/zpYyhW2PKToKxezFfau93+1295tXk0qpuqFJ1EvnrUvddnQ3b3kwLCuv607Obd9nM5t5w3egcDDZd2zdtQzD9GEYeW8S+v7VcbH82Qdf1py8YcZoGJaei02K/Jsz2SU6RaXvVS4ehHccKI68Wuos38IfS/bK9mbBmIRpuOn0VaWu9C7G2yvtUyfPks7qDXnbqHDmkvmjL+HYf87lLzw+9XR1ecfpsfyOQvs0vXrLH/YdhYu0Y4lmYei1dja6zZU7zbTLkjslJd2oMJ9w4YLf2deyVx6cwifXOtJRNvNgKF3Wbyq6Lp+FoesX0QyucBFzVOQzH5mzz3JKxy76leylbfRG9oxJFG14wyXjJ5eO4jR0U+A0MAoT2xXaF4aRYyhSKQ1/lD4Qv7Vaw4/NyZaDe2g/1j31i0lO+UvHzFPJCFc4OM3Ln4dg06OrI/1mTACgQtmDy7bgFXLw93oWXS+0FWyMkJGj6LaLp/KH0dCvqAc14QeU2c0R5VKtI8lIoZ3F9Cq8Xu0KvTRjElJ/Ocd9xOcu4FBLFlaLXJX1uhDlLmXbZlfsQZG3M9pIQjF1I5tD9k1CNKM+eAFqAarij4ztAP46Rz9SLNS9FhypC9f8shF5IkZLTUT7kTw1KQI8oX04RvE36jDchi5c9svoDht69ybXGvzomnnhMyIyjbzrx3N+ZJe3ODI0muhJT9Dti+1mwpiRdSgaaBEumeY+uHrMWuwNV7dzeqzbjXmpgRenorxhXRF5IbrebXmpa+egdNDJVp6uLt00c81Ll9AckKXZokX8kvVl9gU34Ng0/0RerNMSMhyredEp1gtlD4VC3cvMn1pdR199m3VEZOadXPu4hNfCevFcZ4SWBgrdyii3EzkjHCLMIVyFkdO0QeR3hZXSsJsHrCSj2rm309aaIjLcXHdS4uUuB20UGvqjRGp0CMdp0IHB6nHMINgRBHMFZMYWeRErcMy9FMTOxUla92dtCQZIYi4i07Xbx+LotuJg28AOGc3bNPgPe2KaLjQeCBS9WxPyIlYiR+jVPIW/7tp5ZpLAgq+/Rrp7ISeDMpTjtqFhlFEUmuY/c5+5QrOyrhBIqA6pwXWk4a5EQv5YS5PmRPqrOa7/pHMttWwlg60Dr9I4cuF+pTI2jPCBfI4C+fdTcrnMQs9mxpSmo46iGv8VDAV9LWxpKMDmO6Mi7dgCpLkeBC1Z8NEomRG5tC8HIjDMGAx9qkjNcrznkLkE+Uj3gncH8nMO0F/oAUzz0/P8BPBChFMGZA3cyIhwrwa5DvKX4XPoinTSCxYgryJaSb8eZRTKY5VG4Z3Oc0aEnekHpAfj6h3MemFkn4GezVWgeL8Q6GNiw0CD5X1P8mfpOml1PL2rQ0WBskeejfthvgclkdekKQ6XnaYRbt3sghnypncAFwIbGDgKmcQUw5cDmz3OqlB2ylEKYgXyhFwgtIhHD8DnIqoIadGWDW0Pkfg4AkEf1GXyeqSu+WpDxJE8egCuA8i+i2rm/V1A0aGFYipE6rBXKJJO8/WMDJzZtBqqBaBCAPKApvW5gutngf01zs1hFGearLCUoNOCyIoMJdi0GgyfMS2OE58t+2u8rOOPjnIBmxUuE44lSLbJyJlNq0GCPY95c8yDC/KYb8A1FJGDRVSHX5TpjAiKau5aiaCdTatBGVBpCqYwKUL0W4G0hE7mYY7CGixJp821jJwii1ZDzoaKLyn2Kd9et7NhA+jIRIRKOdif78EJ2WX8N6wcFH4X2hYx8+99mry8Q+CrIBVRBi77jNydWMAWK16dWOJYtNoV0EyGEA+pYoFpt7bVDiUV0V4MhjB0HEeEQWGAQ/galjOCmbxLK2aGwT8ZdqtEP+obIBcRDAtoZ1QgrCrUMVIL6OUIKiYz1qLo/eCXaUuBTN045CJCse4pjuPIdOF0IQ7S2dCmCZk6ZgqGS8ELmG76UkLJr4Ny9aDydNRqNZvN1tXR5LhTqhOzlIuoDC2NiowIf76MATOEM6JNE6oIu5J0wWsK8aX0FKGVSIrM8ZWZc/S8ZcxhWa6e9ntBj0tzYRxIRYQCbIpIJFKYVQxIaBZtSKD8z4t5LvklfTNvdyeb8UvFiW67zPq0YbmOnWs+daoKIoJRCjVjwiRWaxMp1hoeFjAiXsdL3RY1J5j5tH3PrD1GQDlrsuvSxGzzDi7KskRUgMt+DjojcvFZ0asVAa0GIy1u+0hRKCMPluO0Op+QUjZGVRJVwCyVQTYAud8KwxXBRQtnoeBxFEO1Qkkmo6DOf7SmX6o20+v10DBFBFcg5IwIkyLC5DKhwIhWK4ueBpBxFdrJLLt7vQZZkj1dsw+LLSLI7kD/Cug0IkkgVAXxdNAVCdtNCk1OfQ7A1J3IvOQhpza6rogwR0jaP6DTCLdCMgjQ3QD6xXTFU6noSr2tuhGtGtmK1GeqIiJIKoE+JJJOuyQUntQVSKuBphmKKsKo39sqzZumfRTB2pqu/IkRRQT5duA+iFQD+JwCMTGQysOmGdz2xUDmyFaZkdsVd1YSuOI8zzSsvKu7rr+hiLlvRiAiWAQA9QqCToOZRJNDq8GCAafqBFG/0G3xZpZgWI5iZvLE6oWyvBBy/+rw6fi6Url+OjxqXTo5x7UYPp0jIkhOEAQ3SadBkp40zjSRY1yQWqTaBrxXfLrMyfa0mBSrzH4Uw1Pn9VY2A79WuVwtXd+3LVtXCB33cIBNWAdxAfaZAW0hGSHQiRSl5yNz3Jbs/DG6KoFkl3qGYU+4wi1kKkfwBo6IoAMhWDKSToPlroLNvAE2RTKoIhGqlbaDPyoYmELFrUKZmdMSs76oP4bXiAYiYiKKppj9FQhnRITQoEKu2r9JoJ69qjm8vuhYTqqVZZ1qzRMErwEyaiKCbHMu/PgFitlfgaTiVtoCCLr1qvXlg/t8mh0JyPvZqN08aWnYqSiiOvBxy8ZEMhrACX2JwUai8lBu3bpGuXTvUuoQjEwmdLxrTqHLVlFEKOALfQuRtFO8D9kfszRC0DTzqfJYvdJlJOqCrDhABm1VMRkVHeoeVODgiQgE2MvIqEUz+ysQCrMUBqCnPtvykbXoGDAnTvxRyUupFo5qDVwRwd/VFrInvglNUU8It3Ma/h3pQ6TbHmUon1P7l0St3ntUl4fSklpU1KI90PK3iGdIudEvI2nxMKEnE+JN9Ap3MBWAd7VBFCAPr9aXI6f3FyB1Isw+CTqN4QTIeGKh0MAVST64GipYRnmRXtTxHjuVnhPU9sAXEQxo5t+KoNNY8yVSwUWmAT4Ivyk7CvCGUyEBhfvDlYaAmjD4IoIN+sFWCLJ8xEoliBaZRe802TSDEpZ1UUfuSJjToCYPsTxDtJUSEB9XVHJF0mmsahg5oIBWK5OuyFLdsiEB8sBC26H2+6oEZmh3vSM4uIN8fN6fH2E2zHgkg2k1UGNVoIqUgNZx4Tbrayyi6AuaKCUACWiwR4ik01gqQfLaAa1GStk0NtR6hvqi2R2rCyDPq6RFuB9MlDWBANvnZvbZzP4KV4hWIyvVG+uDxS3IQkNDIlLwRQWc1IkCXvAJPJmQLY3sgmEF0WpkVOJsqqcK9/qLnovdtSM39gscwedFZS3Sk3iWRdJp7KMgMrCYDZIde1MtnjiyE63jqDwvtsoAeDOV5GQQEBqbJJ3Gua1MGJYXOJFKtQZVxAFqi06L3Atu7ZLn+fR2TeHJIGAwdqHNY/ZXIDdh7e+1CIlJz1xRBuy+FZ8mQG0EF8biHu4ZxZKa4A2AGHevSXlx3B65IOdJqjZWUy7pSFCKtBsCHycgOYnlkFUsEZoy+AZdUkScG0hXmidrH+JTDqIAWYKEyMTpipgvOmIWbYXlUd6pNtxPV6bOfVpA1O2wV2zdH6sq2QQv4+JIBy9pIm9UvWSXJM28wNLYBxaI1JV3Do4g0dkrO5bl1lpKSe4EjUhWmMOpvjd2Th5UPk7zai2ieKXAOIFHPGEqqlh8CNGO4LnLs+zLa1nsW6faFySkI82p+adbMWytXOnyOyOEhDJHKfiaV2LrndCcQwdm6nYrK5BS4ZjqP5Kz4Qd0O45lIf9V79zbZPGAci/MzUIL4ABeOrACu0FI9A7Sx/tHNp7jUnKAcumQ0Q1RkycUMbomYOq5w1LVP9KmUM9kJ7GcDlt6qb0EliCoo2NNH6KshT4/LEafB8AVkS+lvG7XuocXlU6x6k2jXq1mitmn/RzrOExd4YDOA2bzleUEx48auq3jBgvnHAR0AUTrPuuYIuEN56wWKvHpfoyjI0zL1fV0WnetvO7YaZ15mqqEtw7BP0mNebiW7o21iH2wyKCZ7lcUojIXQfEZkbzTNWQwXaVIoR6pT9YOeqMoJ3/KnzKr80ToIxnHWclKM6x3qOBUkQs/4AVrDNTmPiSDT4L8w58B42xCSSWDYZqS4IUXWohhniqzmNeqLzBr4Vp3iLYQi9IceqeYhHRh3CA+qY8Vu8hhuBF43ic1Pc0bS70sgA4CpyVabvDRszEZ88M4zbAmSa8ztcgycruRKrvHNbk/MnNkTNlZaZ5xKmYpGHsyxeFanbJ8UVQxRybGbPvgwqgdRuxOL1mSZmXT6cI15Tx0qo50n+4TXtNk/SrUImsrdO9d50XdaGg26f3oRcvCvegQZFOPUZrSCiZuyPuR9go2Oh9CVpkvnqKjWZSil3K2rXYkteF01zt2pdjkdXRb6cssrZXllm0YdlvFoDP7ju2EsPW2NBipeCHrEuk0K2tkv+jiUtjZGAv27+2vXybIHJ7iBlMvRrXtQ45SZltN1a9RLZZCZFTKmYXM8p8tyJYisY3V7FXO5sTSpqXXzM/uAi1etNxa2vH70V0vbq91j65/0L9rESLTOW960wj+gYtwb2ZeT9diR9nNkLv14kG2cnx83fmR/zrKEvVi53hy1Wo22+1mq3X/lFU/dnCHHXbYYYcddthhhx122GGHHXbYYYcddtghEh7vXp57H2cBPl7fBrd3/W0P6d/B421vFk+lNE1LJpMJH95/k5r3N7Pe7U5O/eFZ3BNNIhFnIZHUtIfnxrYHuUX0Bw9JTzxM6azEpCWetz3QbeF2lNIk4lkIKTWY39H4X1ldYxBPKcknkNFJcE9P00Y3Wx739+EtqaZAC2i++tylfKs7+39o0u1JJAF5Irrz7nrX/D8mtV5j2+P/cvTH6iYWiujdu6+xkGvy17vvGy0ZUUALEe3dLmSU0E5etj2Lr0QDhEBhnOhFigGC0JEnor2bMEBIaLNf7LdfUnPR+OGzpxXTh9H4tff2PJzj7WM0jdOhknY7v7kfDzUwkRo/bnciX4dG3Ms0kiej18H7zWO/wfrF4wC789RdeO1Bi6+E9Gs16eamIf3NSxzIKLVa6cdLGXmL2+/VJAUgl9VYXeml4jshBRgQ694iul5gSFph8hf7JBkeNUJEI3DpBmpYanTHecYvR4PwRslXeK0/BaFVQpvebmeQ20XjZCUibYivfmhxKKST/yGrRGpRil7dn1ESk9ASr/83p9Qn58+4fhNHeUwimRr96rzk7h2x+f2VKSX+su5ojKCxBaoUH/xSrqQ/8EPukFuc44UIEd/Yt73RlEpCS579wvXtbrzg14CMiLgoxZs0ZWyBQFPT36VKjcF06XgT8cbqwsdq9hr/9jMW9eR5pfGv8UovZykyqydSsb3VgpY8EzxhmGSyT/4C9wuS3MdeHLJrpBYR3npBFnHQp732QpW0H25w/ecHihbSeqvrpLduiB814BHhCU2bDSU3/7O4HWv0vDQyE3td6ldiLHva45StSIGUUqOfJ6XG7QerQpRIAZezckUpBc/LWP5JXRoNf5DF9d89/WE52EQSeJzHJSkEljkuHmdcRQqklJz9DCn1h6ME53NrMziD56UYkz3O0xCe2UsboUsPvX88qLx5mzH8Tzh+HD+PVnammpw2RpLynBcuJc+G/2iu67mfeIrfAZJ6wONeLflyZ73Cy4nI2gIkNS3++vKP2VzjZvCgiTpkkkm6uDpczpWbfDAxEFvbQpm0xEPvpbGpCX4OjZvnEaMqBgasjRnfdGlniWm0NyoWwz0xJWfbF9PNYOxbl3jE7NJzf6kLWmTG9W6q2DHgiSk1fX3fkm/ymxc1qXj8pJxNczyHdhZViQK8q/ed+I2C2rQ3fGx8ar7R0PeUJyH0PavxpT44fnMa3q2tl7AP4lK/jeR0MvsOOTX6L4PxNMFt7aQE9MBLxZf1oWSE5QyO5U3Bb4PR+GaXeDh7u1UoFa81orvb3viE3/jKGJJ2ws/f38Lpaeuvzo3eGj06gaBS8b+vg5eNSerx5mXwGvRMq0snEBBjoV8hzM+ogDISGr2kirmzBeUh/vDxNrxjd2bIX95/fBm+9bz1fNERFHEIWkI497tFfraWrwbj7PHyHUVJ+aJKxE+ms/HrYDi8vXts+GC/y8Pj3cv78Ln3MZqeeCvROqIJBRQfsN8SIqRktc/Tho2IbadsUQVdYr46pFLe0E6mD7O/f/+OF/D+OJs9BEIhNyB84n1SAe01Qgkp5q+Spw0+o0mMCZBIkv+zoeenTqjSM4VF8pGcbUJCPt4fUtE993aQTM1UYuWH4Huo0USKuDlb03N/Kzxz/lDyLTeBEiU24IhI9N/iG7W3zcNzQW+KMc6ctE4Jqx5r4WUk4GO2DL8fQTkbnTfwpeQuaw30exH2nXwfPPmcqCqQj1vN17kv66h6GX8+CtgsPAP7iEYY95KeVL+SY+4/T7kE8bfDSzNGt42IM7hNadOvpnAeB1PFnXBfKh4vHxy/r5OFPn4Lx9V/Hnm6tD0xef4n/hFZf74bjfexhDT+Mvn4NN4/XrAK0Xh5jX+zY/KLC7Pnf7RSxcHj8yj1TQGT731Otl9UWAt3b38TqS81uoCsO3n92acO3AzPplF40wji8aQT/y2HMvRv32aCgxXWko6WmL4Ov4gQ3xYe39/GAdX8GUnNWfDkrPfbpLNC4+b27WMUHGTC2YvKkUzA5qaS07Pe8P9xLIwnqfle1ERIugKicck+BsStT9tORx+94cvPWtM3g0a/f/MyfB70Xj/Go4eph5MQ04fZ+ON18Dx8v+uvVy3Z4fvwH0zzxLxLLuveAAAAAElFTkSuQmCC;" vertex="1" parent="1">
          <mxGeometry x="240" y="136" width="106.67" height="64" as="geometry" />
        </mxCell>
        <mxCell id="iv8MLbUQPN9nxLFxDPHG-24" value="&lt;font style=&quot;font-size: 19px;&quot;&gt;Commit Code&lt;/font&gt;" style="text;html=1;align=center;verticalAlign=middle;whiteSpace=wrap;rounded=0;" vertex="1" parent="1">
          <mxGeometry x="110" y="420" width="60" height="30" as="geometry" />
        </mxCell>
        <mxCell id="iv8MLbUQPN9nxLFxDPHG-25" value="&lt;font style=&quot;font-size: 19px;&quot;&gt;Pull Code&lt;/font&gt;" style="text;html=1;align=center;verticalAlign=middle;whiteSpace=wrap;rounded=0;" vertex="1" parent="1">
          <mxGeometry x="150" y="309.99999999999994" width="60" height="30" as="geometry" />
        </mxCell>
        <mxCell id="iv8MLbUQPN9nxLFxDPHG-27" value="&lt;font style=&quot;font-size: 19px;&quot;&gt;Build Code&lt;/font&gt;" style="text;html=1;align=center;verticalAlign=middle;whiteSpace=wrap;rounded=0;" vertex="1" parent="1">
          <mxGeometry x="365" y="420" width="60" height="30" as="geometry" />
        </mxCell>
        <mxCell id="iv8MLbUQPN9nxLFxDPHG-28" value="&lt;span style=&quot;font-size: 19px;&quot;&gt;Copy Artifacts&lt;/span&gt;" style="text;html=1;align=center;verticalAlign=middle;whiteSpace=wrap;rounded=0;" vertex="1" parent="1">
          <mxGeometry x="410" y="302.5" width="130" height="60" as="geometry" />
        </mxCell>
      </root>
    </mxGraphModel>
  </diagram>
</mxfile>
